<?xml version="1.0" encoding="UTF-8"?>
<svg id="Layer_2" data-name="Layer 2" xmlns="http://www.w3.org/2000/svg" xmlns:xlink="http://www.w3.org/1999/xlink" viewBox="0 0 1340.01 360.53">
  <defs>
    <style>
      .cls-1 {
        fill: url(#linear-gradient-2);
      }

      .cls-2 {
        fill: #eed2a4;
      }

      .cls-3 {
        fill: url(#linear-gradient-3);
      }

      .cls-4 {
        fill: url(#linear-gradient);
      }
    </style>
    <linearGradient id="linear-gradient" x1="691.42" y1="220.77" x2="1095.84" y2="220.77" gradientUnits="userSpaceOnUse">
      <stop offset="0" stop-color="#efd3a4"/>
      <stop offset=".23" stop-color="#fffcd4"/>
      <stop offset=".23" stop-color="#fefad2"/>
      <stop offset=".31" stop-color="#f7e8be"/>
      <stop offset=".39" stop-color="#f2dcaf"/>
      <stop offset=".49" stop-color="#efd5a7"/>
      <stop offset=".66" stop-color="#efd3a5"/>
    </linearGradient>
    <linearGradient id="linear-gradient-2" x1="861.99" y1="338.3" x2="903.71" y2="338.3" gradientUnits="userSpaceOnUse">
      <stop offset="0" stop-color="#efd3a4"/>
      <stop offset="0" stop-color="#f2dcae"/>
      <stop offset=".01" stop-color="#f8eabf"/>
      <stop offset=".02" stop-color="#fcf4cb"/>
      <stop offset=".04" stop-color="#fefad2"/>
      <stop offset=".08" stop-color="#fffcd4"/>
      <stop offset=".12" stop-color="#fbf3ca"/>
      <stop offset=".22" stop-color="#f5e4b9"/>
      <stop offset=".35" stop-color="#f1daad"/>
      <stop offset=".52" stop-color="#efd4a6"/>
      <stop offset="1" stop-color="#efd3a5"/>
    </linearGradient>
    <linearGradient id="linear-gradient-3" x1="884.03" y1="153.86" x2="933.57" y2="153.86" gradientUnits="userSpaceOnUse">
      <stop offset="0" stop-color="#efd3a4"/>
      <stop offset=".03" stop-color="#f1d9ab"/>
      <stop offset=".09" stop-color="#f8eabf"/>
      <stop offset=".13" stop-color="#fffcd4"/>
      <stop offset=".17" stop-color="#fbf2c8"/>
      <stop offset=".28" stop-color="#f4e0b4"/>
      <stop offset=".39" stop-color="#f0d6a8"/>
      <stop offset=".5" stop-color="#efd3a5"/>
    </linearGradient>
  </defs>
  <g id="Layer_1-2" data-name="Layer 1">
    <g>
      <path class="cls-2" d="M338.11.18l4.45,215.59c12.42,8.78,96.45-4.9,115.2-8.95,9.22-1.99,73.58-17.85,76.36-20.66,3.43-3.46-1.3-3.37-2.84-4.15-11.6-5.9-36.79-14.87-49.63-18.34-19.37-5.24-55.6-11.62-69.24,7.81-6.14,8.74-2.12,20.08-16.29,16.72-2.35-29.47,14.65-65.44,44.06-74.95,57.44-18.57,135.09,48.65,176.5,28.5,6.86-3.34,8.54-13.31,18.26-7.75,1.94,14.96-9.32,41.33-20.97,51.03-16.54,13.77-24.13,5.81-40.83,7.13-19.34,1.53-59.79,35.62-79.67,46.37-40.48,21.88-109.44,39.4-153.89,25.21-4.47-1.43-11.48-6.83-14.79-7.12-3.64-.31-10.66,5.95-15.54,7.69-26.23,9.35-66.72.35-77.15-28.12-4.36-2.98-3.45,27.45-19.11,29.88-23.24,3.61-54.94-24.78-76.88-32.86-29.41-10.84-23.63-2.72-38.35,17.61-9.12,12.59-18.62,25.09-28.6,37-8.7-8.26-65.15-37.59-68.03-43.62-1.52-3.19-1.05-6.65-1-10.01,65.97,3.57,123.14-89.77,183.22-89.78,45.19-.01,45.92,58.21,84.81,70.76,10.86,3.5,40.32,7.01,42.09-7.87,2.26-19.03-1.67-39.25-2.19-58.03-.86-30.61-.15-61.29-3.27-91.82.21-2.96,21.24-51.08,23.57-54.04,2.93-3.74,5-3.6,9.77-3.22ZM226.1,218.18c-5.98-37.76-36.2-61.95-72.63-39.64-7.61,4.66-29.91,25.17-33.34,32.67-.39.86-.51,3.28.97,2.96,20.43-19.9,31.8-30.24,60.98-18.96,15.47,5.98,27.39,19.86,44.01,22.96Z"/>
      <path class="cls-2" d="M1158.11,2.18l5.09,207.92c8.36,10.85,70.7,9.03,85.89,8.07,10.16-.64,71.13-8.56,70.98-20.98-34.16-23.88-86.17,17.27-118.03-13.93-25.1-24.58-1.69-69.36,24.66-83.48,74.19-39.75,167.58,85.4,74.01,142.01-32.06,19.4-108.38,33.76-143.73,22.53-24.8-7.88-27.48-37.01-28.85-59.15-3.05-49.4,4.8-100.74-4-149.79l22.97-51.2,11.02-1.99ZM1320.09,186.18c2.75-45.83-66.74-87.1-102.05-53.06-3.55,3.43-12.79,16.43-9.74,20.87,14.35,5.57,30.24-4.35,44.83-5.78,22.24-2.19,44.64,2.66,57.9,22.07,3.2,4.69,3.85,12.94,9.06,15.91Z"/>
      <path class="cls-4" d="M692.13,202.2c2.27-2.29,25.03,7.48,30,8.98,91.6,27.59,193.96,33.71,288.7,20.73,20.71-2.84,43.53-6.46,62.8-14.24,7.57-7.54-15.26-30.99-19.18-38.49l32.66-28.94c2.82-.08,4.27,17.44,4.76,21.21,3.08,23.71,9.11,68.62-4.89,88.62-9.76,13.93-45.78,20.55-62.49,23.51-68.09,12.03-163.16,10.18-230.39-6.34-35.46-8.71-55.55-16.52-80.97-43.03-4.2-4.38-25.84-27.1-21-31.98Z"/>
      <path class="cls-1" d="M876.14,360.18c-.74-11.67-8.24-15.49-14.15-22.96,3.25-5.77,17.08-21.71,23.02-21.13,4.43.43,19.14,15.97,18.69,20.79-.54,5.79-22.86,26.62-27.56,23.3Z"/>
      <path class="cls-2" d="M1230.35,47.93l-16.2-22.74,22.97-21.07c4.03,0,21.41,19.16,20.79,22.79-5.01,4.44-20.36,25.57-27.56,21.03Z"/>
      <path class="cls-2" d="M1287.52,4.4c4.99-1.31,20.71,15.36,20.56,20.84-.09,3.16-19.73,23.05-22.99,23.06-4.38.01-12.6-19.07-17.05-23.11,0-2.58,17.04-20.15,19.48-20.79Z"/>
      <path class="cls-2" d="M515.62,18.68c4.79,4.81.49,12.68.4,18.42-.08,5.07,5.31,11.16-.89,15.04-8.72-8.54-13.73.63-22.47,3.59-8.3,2.81-18.54,5.61-24.53-2.55l31.99-7.01c-.08-4.96-4.15-7.34-3.94-12.77.33-8.73,10.7-23.48,19.44-14.71ZM510.11,28.2h-7.98s0,2.96,0,2.96l5.01,5.01h2.96s0-7.97,0-7.97Z"/>
      <path class="cls-3" d="M884.13,168.18c-.16-2.74-.29-5.42.98-8,2.12-4.31,37.33-19.29,43.51-20.55,8.54-1.73,4.28,7.03.29,10.35-3.07,2.56-43.17,20.01-44.78,18.2Z"/>
    </g>
  </g>
</svg>